<?xml version="1.0" encoding="UTF-8"?>
<svg id="Calque_2" data-name="Calque 2" xmlns="http://www.w3.org/2000/svg" viewBox="0 0 324 324">
  <defs>
    <style>
      .cls-1 {
        fill: #042620;
      }

      .cls-1, .cls-2, .cls-3 {
        stroke-width: 0px;
      }

      .cls-2 {
        fill-rule: evenodd;
      }

      .cls-2, .cls-3 {
        fill: #59c2ab;
      }
    </style>
  </defs>
  <g id="katman_1" data-name="katman 1">
    <g>
      <g>
        <path class="cls-3" d="M0,0h324v324H0V0Z"/>
        <path class="cls-1" d="M14.26,14.26h295.49v295.49H14.26V14.26Z"/>
        <path class="cls-3" d="M130,160.79c-3.84-15.36-13.26-46.32-17.11-62.37h-.19c-2.88,15.13-10.76,41.05-16.53,62.37h33.83ZM91.17,183.27l-11.72,39.9c-.19,1.38-.77,1.83-1.92,1.83h-19.61c-1.35,0-1.73-.69-1.35-2.29,10.38-35.08,27.87-93.56,40.17-133.23.58-2.29,1.15-4.59,1.54-12.61,0-.92.58-1.38,1.15-1.38h26.53c.96,0,1.15.23,1.54,1.15,14.22,47.01,29.79,98.83,44.4,146.3.39,1.38,0,2.06-1.15,2.06h-21.53c-.96,0-1.35-.46-1.73-1.38l-12.3-40.36h-44.02Z"/>
      </g>
      <path class="cls-2" d="M263.89,202.75c0,1.55.22,6.23.66,13.81,0,.88-.08,1.34-.98,1.55-11.81,4.46-24.89,9.14-41.38,9.14-20.27,0-39.65-7.8-39.65-38.98v-71.16c0-1.12.45-1.79,1.56-1.79h21.19c1.12,0,1.56.67,1.56,1.79v68.26c0,13.14,4.97,20.27,18.78,20.27,5.57,0,10.62-1.11,13.96-2.45v-86.08c0-1.12.44-1.79,1.56-1.79h21.18c1.34,0,1.56.67,1.56,1.79v85.64Z"/>
    </g>
  </g>
</svg>