<?xml version="1.0" encoding="UTF-8"?>
<svg id="Calque_2" data-name="Calque 2" xmlns="http://www.w3.org/2000/svg" viewBox="0 0 1920.56 1080">
  <defs>
    <style>
      .cls-1 {
        fill: #3a525e;
      }

      .cls-1, .cls-2, .cls-3, .cls-4, .cls-5, .cls-6, .cls-7 {
        stroke-width: 0px;
      }

      .cls-2 {
        fill: #fffbdb;
      }

      .cls-3 {
        fill: #97e5e9;
      }

      .cls-4 {
        fill: #86cfea;
      }

      .cls-5 {
        fill: #dafbf0;
      }

      .cls-6 {
        fill: #219cac;
      }

      .cls-7 {
        fill: #30cdd2;
      }
    </style>
  </defs>
  <g id="Calque_1-2" data-name="Calque 1">
    <rect class="cls-4" width="1920" height="1080"/>
    <path class="cls-2" d="M1392.86,472.72c96.62,0,174.95-85.49,174.95-190.95s-78.33-190.95-174.95-190.95-174.95,85.49-174.95,190.95,78.33,190.95,174.95,190.95Z"/>
    <path class="cls-3" d="M1920.56,450.36v111.1s-.05-.03-.14-.09c-.92,262.13-1.62,517.68-.88,518.42H1.58V388.34c32.39-1.54,98.63-4.25,98.63-.69h.02s272.85,0,488.68-210.09c22.4-20.38,166.96-64.28,226.01-147.37,7.76-4.98,22.49-16.9,41.01-28.86h155.3c21.13,12.59,59.05,38.43,105.05,96.27,16.3,14.1,81.44,72.13,148.64,64.28,2.13.82,9.43,5.12,20.79,12,56.1,33.94,210.98,130.68,327.57,180.41,40.36,17.22,76.14,28.81,101.63,30.21,114.02,6.26,205.65,45.48,205.65,65.86Z"/>
    <path class="cls-7" d="M1919.54,1079.79H1.58v-521.55c9.71-3.53,19.39-7.48,17.66-8.62,0,0,40.12-39.99,258.56-77.03,69.1-14.81,546.11-143.68,559.47-152.56,17.83,0,120.37-65.18,325.44,35.54,11.66,3.54,67.27,9.41,129.07,20.19h0c68.04,11.86,143.59,29.67,176.29,56.84,5.17,2.67,25.17,10.27,53.03,19.9h.01c80.17,27.71,225.5,72.22,270.16,64.52,58.63-1.44,125.7,42.09,129.14,44.35-.92,262.13-1.62,517.68-.88,518.42Z"/>
    <path class="cls-6" d="M1908.78,657.48v422.31H1.58v-493.5c28.77-3.82,127.87-17.93,161.43-34.82,16.24-2.28-22.04-4.57,151.96-7.62,16.24-.76,40.6-2.29,59.16-13.72,6.95-1.53,51.02-19.07,97.43-10.68,11.59-.76,55.68-16.01,68.44-19.83,12.75-3.81,38.28-1.52,135.72,28.22,16.24,3.05,106.72-2.28,106.72-2.28,0,0,31.31-1.53,82.36,17.53,25.52,8.38,85.83,22.11,85.83,22.11,0,0,33.65,13.72,64.97-1.53,10.43-1.53,70.76-25.17,131.07-11.43,41.77,8.39,163.56,34.32,212.28,30.5,32.49,0,74.24-5.33,100.92,6.86,18.55.75,129.91-3.04,160.08-18.29,0,0,215.75,33.55,233.16,49.57,17.4,16,55.67,36.6,55.67,36.6Z"/>
    <path class="cls-1" d="M1912.7,738.41v341.38H1.58v-288.9c6.5-5.95,14.02-10.8,21.3-10.8,0,0,66.64,25.47,93.97,16.19,29.06-4.62,47.85-6.94,47.85-6.94,0,0,45.28-1.54,56.39,3.48,10.25,0,105.42-5.9,111.06-17.37,18.8-1.16,121.32-1.16,170.88,22,20.5-4.63,150.36-3.47,181.12-22,20.51-1.16,75.18-11.56,104.24,0,29.04,11.57,99.09-21.99,112.77-24.31,13.68-2.3,88.86-24.31,131.57-8.1,29.05,2.31,102.52,3.48,134.99-15.06,13.68,1.17,68.36-9.26,100.81,2.32,32.47,1.17,128.15-42.84,268.26-10.42,37.6-1.17,138.4-26.62,187.96-18.52,49.55,8.11,102.52,4.63,121.31,10.42,15.53,4.79,50.91,19.85,62.72,24.93,2.49,1.07,3.92,1.7,3.92,1.7Z"/>
    <path class="cls-5" d="M1633.71,874.52c-5.61,34.94,13.13,65.99-206.14,87.72-148.05,6.21-453.53,3.88-507.88,29.51-37.47.77-185.53-4.41-211.14,3.88-23.74,8.01-97.45,22.25-103.07,40.37,1.87,4.4-4.99,27.69,170.54,14.49,33.1-1.81,413.55-10.86,539.73,29.24.07.02.14.04.21.06H494.98c-54.86-3.24-199.71-12.51-130.02-84.7,12.5-5.18,56.22-10.35,99.95-37.25,22.5-2.59,158.67-3.11,263.62-28.47,19.99-.51,402.3-6.21,361.07-41.4,0-2.59,3.75-21.74-228.64-20.7-17.5-1.04-186.15-22.77-211.15-24.84-28.73.52-101.2-7.76-179.91-1.03-71.21,4.14-144.92,4.14-179.91.51-34.99-3.62-177.4-7.76-184.91-10.35-6.17-2.13-76.65-1.8-103.5.69v-29.36c19.7-.28,65.64-.13,97.26,6.42,22.49-1.55,43.1-13.19,69.33-3.88,24.37,2.33,144.3-1.55,178.05,6.99,28.11-2.33,277.36-18.63,380.44-2.33,52.48,6.21,161.18,17.07,226.76,10.09,46.85-3.88,640.94-15.54,680.29,54.34Z"/>
  </g>
</svg>