<?xml version="1.0" encoding="UTF-8"?>
<svg id="Calque_2" data-name="Calque 2" xmlns="http://www.w3.org/2000/svg" xmlns:xlink="http://www.w3.org/1999/xlink" viewBox="0 0 118 127.21">
  <defs>
    <style>
      .cls-1 {
        fill: #f2b485;
      }

      .cls-1, .cls-2, .cls-3 {
        stroke-width: 0px;
      }

      .cls-2 {
        fill: #e4904b;
      }

      .cls-3 {
        fill: none;
      }

      .cls-4 {
        clip-path: url(#clippath);
      }
    </style>
    <clipPath id="clippath">
      <rect class="cls-3" x="30.07" width="11.8" height="14.87"/>
    </clipPath>
  </defs>
  <g id="Calque_3" data-name="Calque 3">
    <g>
      <path class="cls-2" d="M12.25,90.07V1.56H0v96.65h40.82v-8.14H12.25Z"/>
      <path class="cls-1" d="M31.55,19.21v108h8.45V19.21h-8.45Z"/>
      <path class="cls-1" d="M111.89,110.42l-.3-.82-2.76-7.58-.28-.77-23.31-64.04h-.06l-17.02,48.86-.29.83-8.01,22.99-.28.81-5.75,16.5h8.16l5.35-16.5.27-.81,3.37-10.4,28.2.65,3.23,9.61.28.82,5.6,16.63h9.71l-6.11-16.8ZM84.89,63.72l8.45,26.1h-16.89l8.44-26.1Z"/>
      <path class="cls-2" d="M33.79,114.83l12.89-17.08.32-.42,11.28-14.95,2.51-3.32,23.47-31.09v-10.76H17.22v15.14h48.03l-18,23.45-.25.32-.32.42-.87,1.13-6.19,8.07-.26.33-7.5,9.78-.31.4h-.01s-1.74,2.28-1.74,2.28l-.25.33-16.28,21.21v7.14h72.63v-12.38h-52.11Z"/>
      <g class="cls-4">
        <path class="cls-1" d="M41.82,10.05c.01.12.03.22.04.32.02.4-.06.78-.2,1.16-.23.62-.5,1.23-.89,1.77-.35.49-.74.93-1.28,1.22-.26.13-.52.24-.81.22-.22,0-.44,0-.66-.03-.28-.04-.54-.15-.79-.29-.29-.15-.58-.3-.87-.45-.12-.06-.22-.06-.34.01-.28.17-.56.35-.85.51-.2.11-.41.22-.63.29-.17.06-.36.06-.55.08-.42.05-.78-.12-1.14-.31-.82-.44-1.44-1.09-1.88-1.91-.29-.53-.48-1.1-.61-1.69,0-.02,0-.04,0-.06,0-.01,0-.03.01-.05.04.01.08.03.12.04.39.12.78.24,1.17.36.08.02.17.03.25.02.11,0,.18-.08.19-.18.01-.11-.06-.16-.14-.2-.35-.15-.7-.29-1.04-.47-.49-.26-.74-.7-.81-1.25-.1-.75-.04-1.5.11-2.24.05-.23.14-.46.23-.68.05-.12.1-.14.21-.06.33.27.66.55.99.82.32.27.63.54.94.81.08.07.16.06.24,0,.07-.06.1-.13.04-.21-.1-.13-.21-.25-.32-.37-.23-.27-.48-.52-.69-.8-.14-.18-.26-.39-.35-.6-.09-.22-.17-.44-.14-.69,0-.06.02-.13.06-.18.12-.18.18-.37.16-.59,0-.02.01-.04.02-.07.04-.09.08-.18.12-.26,0,0,0-.03.01-.03.19-.07.19-.3.32-.42.04-.04.03-.14.06-.2.05-.09.11-.19.18-.26.07-.09.11-.08.19,0,.32.38.64.76.97,1.14.12.14.26.27.4.41.04.04.08.07.13.09.08.04.16.03.22-.03.06-.06.07-.14.03-.21-.09-.17-.18-.34-.27-.5-.11-.21-.23-.41-.34-.62-.07-.14-.15-.27-.23-.41-.24-.44-.21-.87.08-1.28.31-.44.7-.78,1.14-1.06.33-.22.68-.41,1.03-.6.24-.13.46-.07.69.06.16.09.33.16.49.26.21.13.42.26.61.42.16.13.31.29.44.45.28.36.28.78.17,1.2-.08.29-.18.58-.27.87-.02.06-.03.12-.04.18-.02.11.05.21.14.24.11.03.16-.04.19-.12.13-.29.25-.58.38-.87.07-.16.16-.31.24-.46.04-.08.1-.09.16-.03.15.15.32.29.45.46.32.4.58.85.78,1.33.16.37.11.71-.14,1.02-.23.29-.47.58-.7.88-.03.03-.05.07-.06.11-.03.07-.04.14.02.2.06.06.14.06.2.01.17-.12.33-.24.5-.36.2-.15.38-.31.58-.46.05-.04.1-.07.15-.1.12-.07.16-.07.22.05.15.31.32.62.42.95.17.55.3,1.11.42,1.67.05.24.05.49.05.74,0,.39-.14.7-.47.91-.34.22-.7.42-1.05.63-.08.05-.17.09-.25.14-.1.07-.13.16-.09.25.04.08.12.13.23.09.29-.11.57-.22.85-.34.25-.11.5-.23.76-.35.03-.01.06-.03.12-.05h0Z"/>
      </g>
    </g>
  </g>
</svg>