<svg width="72" height="38" viewBox="0 0 72 38" fill="none" xmlns="http://www.w3.org/2000/svg">
<g clip-path="url(#clip0_192_256)">
<path d="M71.9812 0.00341797H0V37.9382H71.9812V0.00341797Z" fill="white"/>
<path d="M71.9867 15.1828H40.2923V0.00579834H31.6408V15.1828H0.0302734V22.7671H31.6408V37.9379H40.2923V22.7671H71.9867V15.1828Z" fill="#CE1124"/>
<path d="M0.000976562 4.42084V12.6803H15.7011L0.000976562 4.42084Z" fill="#00247D"/>
<path d="M8.66266 0.00183105L8.43262 0.0122901L28.7901 10.7786V0.00183105H8.66266Z" fill="#00247D"/>
<path d="M24.1616 12.6281L0.000976562 0.00384521V2.97935L18.4044 12.6281H24.1616Z" fill="#CE1124"/>
<path d="M47.8389 25.3102L71.9995 37.9344V34.9589L53.5961 25.3102H47.8389Z" fill="#CE1124"/>
<path d="M0.000976562 33.581V25.3215H15.7011L0.000976562 33.581Z" fill="#00247D"/>
<path d="M8.66266 38L8.43262 37.9895L28.7901 27.2233V38H8.66266Z" fill="#00247D"/>
<path d="M24.0379 25.3093L0.0166016 37.9279L5.63452 37.9335L28.8129 25.8225V25.3093H24.0379Z" fill="#CE1124"/>
<path d="M71.9999 4.41901V12.6784H56.2998L71.9999 4.41901Z" fill="#00247D"/>
<path d="M63.3383 0L63.5684 0.0104229L43.2109 10.7767V0H63.3383Z" fill="#00247D"/>
<path d="M71.9767 0.0176462L66.5732 0.0172119L43.2314 12.2135V12.6414H48.1698L71.9767 0.0176462Z" fill="#CE1124"/>
<path d="M71.9999 33.5779V25.3184H56.2998L71.9999 33.5779Z" fill="#00247D"/>
<path d="M63.3383 37.9968L63.5684 37.9864L43.2109 27.2201V37.9968H63.3383Z" fill="#00247D"/>
</g>
<defs>
<clipPath id="clip0_192_256">
<rect width="72" height="38" fill="white"/>
</clipPath>
</defs>
</svg>
